<svg xmlns="http://www.w3.org/2000/svg" width="22" height="22" viewBox="0 0 22 22">
    <defs>
        <style>
            .cls-4,.cls-5{stroke:none}.cls-5{fill:#111}
        </style>
    </defs>
    <g id="ico_alarm" transform="translate(-223 -103)">
        <path id="guide" fill="none" d="M0 0H22V22H0z" opacity="0.5" transform="translate(223 103)"/>
        <g id="패스_283" fill="#fff">
            <path d="M3 5.5C1.621 5.5.5 4.378.5 3v-.064c0-.331 0-.706.044-.81.138-.07.717-.07.91-.07.174 0 .368.001.585.004.28.002.598.005.961.005s.68-.003.961-.005c.217-.003.411-.005.585-.005.193 0 .772 0 .91.07.044.105.044.48.044.81V3c0 1.378-1.122 2.5-2.5 2.5z" class="cls-4" transform="translate(231 118)"/>
            <path d="M1.454 2.555c-.197 0-.343.004-.452.009C1 2.678 1 2.81 1 2.936V3c0 1.103.897 2 2 2s2-.897 2-2v-.065c0-.124 0-.257-.002-.371-.109-.005-.255-.009-.452-.009-.172 0-.365.002-.58.005-.282.002-.6.005-.966.005-.365 0-.684-.003-.966-.005-.216-.003-.408-.005-.58-.005m0-1c.397 0 .903.01 1.546.01 3.04 0 3-.222 3 1.435S4.657 6 3 6 0 4.657 0 3c0-1.306-.025-1.445 1.454-1.445z" class="cls-5" transform="translate(231 118)"/>
        </g>
        <g id="패스_282" fill="#fff" stroke-linecap="round" stroke-linejoin="round">
            <path d="M29.062 23.563H12.063v-.288l1.956-4.378.043-.097v-4.582c.014-2.507 1.239-5.442 3.946-6.351.719-.196 1.66-.304 2.65-.304.98 0 1.893.112 2.444.299 2.718.905 3.947 3.846 3.96 6.36v4.58l.045.099 1.955 4.286v.376z" class="cls-4" transform="translate(213.438 96.937)"/>
            <path d="M28.456 23.063l-1.803-3.955c-.06-.13-.09-.271-.09-.415v-4.47c-.014-2.335-1.137-5.06-3.617-5.886l-.005-.002c-.502-.17-1.355-.272-2.282-.272-.928 0-1.839.103-2.506.283-2.463.835-3.578 3.55-3.59 5.876v4.471c0 .141-.03.28-.088.408l-1.77 3.962h15.751m1.106 1h-18v-.895l2-4.475v-4.475c.016-2.924 1.514-5.902 4.3-6.83 1.64-.45 4.176-.416 5.4 0 2.786.928 4.285 3.906 4.3 6.83v4.475l2 4.386v.984z" class="cls-5" transform="translate(213.438 96.937)"/>
        </g>
    </g>
</svg>
