<svg xmlns="http://www.w3.org/2000/svg" width="22" height="22" viewBox="0 0 22 22">
    <g fill="none">
        <path d="M0 0H22V22H0z" transform="translate(-1028 207) translate(1028 -207)"/>
        <g>
            <path d="M6388 2922h-5c-2.58 0-3-.42-3-3v-8.264a4.716 4.716 0 0 1 1.845-3.728l5.312-4.051a4.7 4.7 0 0 1 5.686 0l5.326 4.043a4.714 4.714 0 0 1 1.831 3.736V2919c0 2.578-.42 3-3 3h-5v-7a1 1 0 0 0-1-1h-2a1 1 0 0 0-1 1v7z" transform="translate(-1028 207) translate(-5351 -3108)"/>
            <path fill="#111" d="M6387 2921v-6c0-1.103.897-2 2-2h2c1.103 0 2 .897 2 2v6h4c1.009 0 1.601-.081 1.76-.24.16-.16.24-.751.24-1.76v-8.263c0-1.156-.537-2.255-1.436-2.94l-5.328-4.044c-.636-.485-1.43-.753-2.236-.753-.806 0-1.6.268-2.236.753l-5.312 4.051c-.91.693-1.452 1.79-1.452 2.933V2919c0 1.009.08 1.6.24 1.76.159.159.751.24 1.76.24h4m1 1h-5c-2.58 0-3-.421-3-3v-8.263c0-1.453.69-2.847 1.845-3.728l5.312-4.051c.81-.617 1.819-.958 2.843-.958s2.034.34 2.843.958l5.326 4.043c1.146.873 1.831 2.27 1.831 3.736V2919c0 2.579-.42 3-3 3h-5v-7c0-.551-.449-1-1-1h-2c-.551 0-1 .449-1 1v7z" transform="translate(-1028 207) translate(-5351 -3108)"/>
        </g>
    </g>
</svg>
