<svg xmlns="http://www.w3.org/2000/svg" width="20" height="20" viewBox="0 0 20 20">
    <g>
        <path fill="none" d="M0 0H20V20H0z" opacity="0.25" transform="translate(-2 -2) translate(2 2)"/>
        <g fill="#fff">
            <path d="M11.001 18.84l-.97-.883-.012-.01C5.491 13.84 2.5 11.126 2.5 7.95c0-2.495 1.955-4.45 4.45-4.45 1.388 0 2.76.637 3.67 1.705l.38.447.38-.447c.91-1.068 2.282-1.705 3.67-1.705 2.495 0 4.45 1.955 4.45 4.45 0 3.172-2.982 5.882-7.496 9.984l-.035.032-.968.874z" transform="translate(-2 -2) translate(1 1)"/>
            <path fill="#111" d="M11.003 18.165l.665-.601C16.083 13.55 19 10.9 19 7.95 19 5.735 17.265 4 15.05 4c-1.244 0-2.473.572-3.289 1.53L11 6.422l-.761-.894C9.423 4.572 8.194 4 6.95 4 4.735 4 3 5.735 3 7.95c0 2.956 2.926 5.61 7.355 9.626l.648.589M11 19.515l-1.305-1.188C5.06 14.124 2 11.352 2 7.95 2 5.178 4.178 3 6.95 3c1.566 0 3.069.729 4.05 1.881C11.981 3.729 13.484 3 15.05 3 17.822 3 20 5.178 20 7.95c0 3.402-3.06 6.174-7.695 10.386L11 19.515z" transform="translate(-2 -2) translate(1 1)"/>
        </g>
    </g>
</svg>
